# xmcd
#
# Track frame offsets: 
#        150
#        27192
#        47375
#        76775
#        99827
#        119952
#        147300
#        178835
#        202620
#        212907
#        236545
#        250145
#        265302
#
# Disc length: 3839 seconds
#
# Revision: 1
# Processed by: cddbd v1.5.1PL0 Copyright (c) Steve Scherf et al.
# Submitted via: ExactAudioCopy v0.95a5
#
DISCID=ad0efd0d
DTITLE=Lightnin' Hopkins - Members edition
DYEAR=1996
DGENRE=Blues
TTITLE0=I Heard My Children Crying
TTITLE1=Lieave Like Mary Alone
TTITLE2=You Treat Po' Lightnin' Wrong
TTITLE3=I'm Gonna Meet My Baby Somewhere
TTITLE4=Dont Treat That Man The Way You Treat Me
TTITLE5=There's Good Rockin' Tonight
TTITLE6=Big Black Cadillac Man
TTITLE7=Early In The Mornin' Blues
TTITLE8=Coffee House Blues
TTITLE9=I've Been Bucked and Scorned
TTITLE10=Stool Pidgeon Blues
TTITLE11=New Car Blues
TTITLE12=Get Off My Toe
EXTD=
EXTT0=
EXTT1=
EXTT2=
EXTT3=
EXTT4=
EXTT5=
EXTT6=
EXTT7=
EXTT8=
EXTT9=
EXTT10=
EXTT11=
EXTT12=
PLAYORDER=
